<svg width="14" height="15" viewBox="0 0 14 15" fill="none" xmlns="http://www.w3.org/2000/svg">
<path d="M12.4876 0H0.650344C0.291685 0 0 0.291685 0 0.650344V14.3497C0 14.615 0.158469 14.851 0.40404 14.9513C0.482726 14.9835 0.565437 15 0.650344 15C0.823452 15 0.992534 14.929 1.11441 14.8053L6.56932 9.25011L12.0242 14.8057C12.1457 14.9294 12.3148 15 12.4883 15C12.5728 15 12.6555 14.9839 12.7342 14.9517C12.9798 14.8514 13.1383 14.615 13.1383 14.3497V0.650344C13.1383 0.291685 12.8466 0 12.4879 0H12.4876ZM1.30032 12.7591V1.30032H11.8372V12.7591L7.03265 7.86598C6.91114 7.74228 6.74206 7.67128 6.56895 7.67128C6.39584 7.67128 6.22676 7.74228 6.10489 7.86598L1.30032 12.7591Z" fill="white"/>
</svg>
