<svg width="20" height="20" viewBox="0 0 20 20" fill="none" xmlns="http://www.w3.org/2000/svg">
<path d="M5.63315 18.3334H14.3665C16.6665 18.3334 17.5831 16.925 17.6915 15.2084L18.1248 8.32502C18.2415 6.52502 16.8081 5.00002 14.9998 5.00002C14.4915 5.00002 14.0248 4.70835 13.7915 4.25835L13.1915 3.05002C12.8081 2.29169 11.8081 1.66669 10.9581 1.66669H9.04981C8.19148 1.66669 7.19148 2.29169 6.80815 3.05002L6.20815 4.25835C5.97481 4.70835 5.50815 5.00002 4.99981 5.00002C3.19148 5.00002 1.75815 6.52502 1.87481 8.32502L2.30815 15.2084C2.40815 16.925 3.33315 18.3334 5.63315 18.3334Z" stroke="#15224F" stroke-width="1.5" stroke-linecap="round" stroke-linejoin="round"/>
<path d="M8.75 6.66669H11.25" stroke="#15224F" stroke-width="1.5" stroke-linecap="round" stroke-linejoin="round"/>
<path d="M10.0003 15C11.492 15 12.7087 13.7833 12.7087 12.2916C12.7087 10.8 11.492 9.58331 10.0003 9.58331C8.50866 9.58331 7.29199 10.8 7.29199 12.2916C7.29199 13.7833 8.50866 15 10.0003 15Z" stroke="#15224F" stroke-width="1.5" stroke-linecap="round" stroke-linejoin="round"/>
</svg>
