<svg width="88" height="88" viewBox="0 0 88 88" fill="none" xmlns="http://www.w3.org/2000/svg">
<path fill-rule="evenodd" clip-rule="evenodd" d="M10.4257 52.6666H9.33366C7.03512 52.6666 4.83071 51.7535 3.2054 50.1282C1.58008 48.5029 0.666992 46.2985 0.666992 44C0.666992 41.7014 1.58008 39.497 3.2054 37.8717C4.83071 36.2464 7.03512 35.3333 9.33366 35.3333H10.4257C11.2447 32.1526 12.5057 29.1496 14.135 26.3893L13.355 25.6136C11.7299 23.9874 10.8174 21.7822 10.8182 19.4832C10.819 17.1842 11.7331 14.9797 13.3593 13.3546C14.9855 11.7296 17.1907 10.8171 19.4897 10.8179C21.7887 10.8187 23.9933 11.7327 25.6183 13.359L26.3897 14.1346C29.1815 12.4834 32.1926 11.2346 35.3337 10.4253V9.33329C35.3337 7.03475 36.2467 4.83035 37.8721 3.20503C39.4974 1.57972 41.7018 0.666626 44.0003 0.666626C46.2989 0.666626 48.5033 1.57972 50.1286 3.20503C51.7539 4.83035 52.667 7.03475 52.667 9.33329V10.4253C55.8477 11.2443 58.8507 12.5053 61.611 14.1346L62.3867 13.3546C64.0129 11.7296 66.218 10.8171 68.5171 10.8179C69.6554 10.8183 70.7825 11.0429 71.8341 11.4789C72.8856 11.9149 73.841 12.5537 74.6457 13.359C75.4503 14.1642 76.0885 15.12 76.5237 16.1719C76.959 17.2237 77.1828 18.351 77.1824 19.4894C77.182 20.6277 76.9574 21.7548 76.5214 22.8064C76.0854 23.8579 75.4465 24.8133 74.6413 25.618L73.8657 26.3893C75.4993 29.1496 76.756 32.1526 77.575 35.3333H78.667C80.9655 35.3333 83.1699 36.2464 84.7952 37.8717C86.4206 39.497 87.3336 41.7014 87.3336 44C87.3336 46.2985 86.4206 48.5029 84.7952 50.1282C83.1699 51.7535 80.9655 52.6666 78.667 52.6666H77.575C76.7657 55.8077 75.5169 58.8187 73.8657 61.6106L74.6457 62.3863C75.4503 63.1915 76.0885 64.1473 76.5237 65.1992C76.959 66.251 77.1828 67.3783 77.1824 68.5167C77.182 69.655 76.9574 70.7822 76.5214 71.8337C76.0854 72.8853 75.4465 73.8406 74.6413 74.6453C73.8361 75.4499 72.8803 76.0881 71.8284 76.5234C70.7766 76.9586 69.6493 77.1824 68.5109 77.182C67.3726 77.1816 66.2454 76.957 65.1939 76.521C64.1423 76.085 63.187 75.4462 62.3823 74.641L61.611 73.8653C58.8191 75.5165 55.808 76.7653 52.667 77.5746V78.6666C52.667 80.9652 51.7539 83.1696 50.1286 84.7949C48.5033 86.4202 46.2989 87.3333 44.0003 87.3333C41.7018 87.3333 39.4974 86.4202 37.8721 84.7949C36.2467 83.1696 35.3337 80.9652 35.3337 78.6666V77.5746C32.1926 76.7653 29.1815 75.5165 26.3897 73.8653L25.614 74.6453C24.8088 75.4499 23.8529 76.0881 22.8011 76.5234C21.7492 76.9586 20.6219 77.1824 19.4836 77.182C18.3452 77.1816 17.2181 76.957 16.1666 76.521C15.115 76.085 14.1596 75.4462 13.355 74.641C12.5503 73.8357 11.9122 72.8799 11.4769 71.8281C11.0416 70.7762 10.8178 69.6489 10.8182 68.5106C10.8186 67.3722 11.0433 66.2451 11.4793 65.1935C11.9153 64.142 12.5541 63.1866 13.3593 62.382L14.135 61.6106C12.4838 58.8187 11.235 55.8077 10.4257 52.6666ZM31.0003 35.3333L22.3337 44L39.667 61.3333L65.667 35.3333L57.0003 26.6666L39.667 44L31.0003 35.3333Z" fill="#F49920"/>
</svg>
