<svg width="23" height="22" viewBox="0 0 23 22" fill="none" xmlns="http://www.w3.org/2000/svg">
<path d="M8.05111 17.4166H7.59277C3.92611 17.4166 2.09277 16.4999 2.09277 11.9166V7.33325C2.09277 3.66659 3.92611 1.83325 7.59277 1.83325H14.9261C18.5928 1.83325 20.4261 3.66659 20.4261 7.33325V11.9166C20.4261 15.5833 18.5928 17.4166 14.9261 17.4166H14.4678C14.1836 17.4166 13.9086 17.5541 13.7344 17.7833L12.3594 19.6166C11.7544 20.4233 10.7644 20.4233 10.1594 19.6166L8.78444 17.7833C8.63777 17.5816 8.29861 17.4166 8.05111 17.4166Z" stroke="#7D7F88" stroke-width="1.375" stroke-miterlimit="10" stroke-linecap="round" stroke-linejoin="round"/>
<path d="M6.67676 7.33325H15.8434" stroke="#7D7F88" stroke-width="1.375" stroke-linecap="round" stroke-linejoin="round"/>
<path d="M6.67676 11.9167H12.1768" stroke="#7D7F88" stroke-width="1.375" stroke-linecap="round" stroke-linejoin="round"/>
</svg>
