<svg width="16" height="16" viewBox="0 0 16 16" fill="none" xmlns="http://www.w3.org/2000/svg">
<path d="M9.89578 8L15.6104 2.28392C16.1299 1.76427 16.1299 0.909378 15.6104 0.389733C15.0909 -0.129911 14.2362 -0.129911 13.7167 0.389733L8.0021 6.10582L2.28751 0.389734C1.768 -0.12991 0.91333 -0.12991 0.393821 0.389734C0.134068 0.649556 8.09166e-07 0.993192 8.09166e-07 1.33683C8.09166e-07 1.68046 0.134068 2.0241 0.393821 2.28392L6.10841 8L0.393821 13.7161C0.134066 13.9759 0 14.3195 0 14.6632C0 15.0068 0.134066 15.3504 0.393821 15.6103C0.913329 16.1299 1.768 16.1299 2.28751 15.6103L8.00209 9.89419L13.7167 15.6103C14.2362 16.1299 15.0909 16.1299 15.6104 15.6103C16.1299 15.0906 16.1299 14.2357 15.6104 13.7161L9.89578 8Z" fill="black"/>
</svg>
