<svg width="19" height="18" viewBox="0 0 19 18" fill="none" xmlns="http://www.w3.org/2000/svg">
<path d="M9.38552 0.0527349C7.62002 0.0531218 5.89428 0.577032 4.42653 1.55821C2.95879 2.5394 1.81496 3.93378 1.13969 5.56504C0.464414 7.1963 0.288032 8.99117 0.632844 10.7227C0.977656 12.4542 1.82817 14.0445 3.07685 15.2927C4.32552 16.5408 5.91626 17.3906 7.64791 17.7347C9.37957 18.0787 11.1744 17.9015 12.8053 17.2256C14.4363 16.5496 15.8302 15.4051 16.8107 13.937C17.7912 12.4688 18.3144 10.7428 18.314 8.97731C18.3139 7.80503 18.0828 6.64425 17.634 5.56127C17.1852 4.4783 16.5275 3.49434 15.6984 2.66559C14.8693 1.83684 13.885 1.17953 12.8019 0.731216C11.7187 0.282899 10.5578 0.0523495 9.38552 0.0527349ZM11.6467 12.2107L9.38552 9.94948L7.12626 12.2107C7.06255 12.2744 6.98692 12.3249 6.90369 12.3594C6.82045 12.3939 6.73124 12.4116 6.64115 12.4116C6.55106 12.4116 6.46185 12.3939 6.37861 12.3594C6.29538 12.3249 6.21975 12.2744 6.15604 12.2107C6.09234 12.147 6.04181 12.0714 6.00733 11.9881C5.97285 11.9049 5.95511 11.8157 5.95511 11.7256C5.95511 11.6355 5.97285 11.5463 6.00733 11.4631C6.04181 11.3798 6.09234 11.3042 6.15604 11.2405L8.41726 8.97731L6.158 6.71805C6.0296 6.58965 5.95747 6.41551 5.95747 6.23392C5.95747 6.05234 6.0296 5.87819 6.158 5.74979C6.2864 5.6214 6.46055 5.54926 6.64213 5.54926C6.82371 5.54926 6.99786 5.6214 7.12626 5.74979L9.38552 8.00906L11.6487 5.74979C11.7774 5.62114 11.9519 5.54886 12.1338 5.54886C12.3158 5.54886 12.4902 5.62114 12.6189 5.74979C12.7476 5.87845 12.8198 6.05295 12.8198 6.2349C12.8198 6.41685 12.7476 6.59135 12.6189 6.72001L10.3577 8.97731L12.6189 11.2385C12.6828 11.3021 12.7335 11.3777 12.768 11.461C12.8026 11.5442 12.8204 11.6335 12.8204 11.7236C12.8204 11.8138 12.8026 11.903 12.768 11.9863C12.7335 12.0695 12.6828 12.1451 12.6189 12.2087C12.5554 12.2727 12.4799 12.3236 12.3968 12.3583C12.3136 12.3931 12.2244 12.4111 12.1342 12.4113C12.0441 12.4114 11.9548 12.3938 11.8715 12.3594C11.7881 12.325 11.7124 12.2744 11.6487 12.2107H11.6467Z" fill="white"/>
</svg>
