<svg width="19" height="19" viewBox="0 0 19 19" fill="none" xmlns="http://www.w3.org/2000/svg">
<path d="M9.28493 0.435669C7.51943 0.436056 5.79369 0.959967 4.32595 1.94115C2.8582 2.92233 1.71437 4.31672 1.0391 5.94797C0.363828 7.57923 0.187447 9.3741 0.532258 11.1056C0.87707 12.8371 1.72759 14.4275 2.97626 15.6756C4.22493 16.9237 5.81567 17.7735 7.54733 18.1176C9.27898 18.4617 11.0738 18.2845 12.7047 17.6085C14.3357 16.9325 15.7296 15.7881 16.7101 14.3199C17.6907 12.8517 18.2138 11.1258 18.2134 9.36025C18.2133 8.18796 17.9822 7.02718 17.5334 5.94421C17.0847 4.86123 16.4269 3.87727 15.5978 3.04852C14.7687 2.21977 13.7844 1.56247 12.7013 1.11415C11.6181 0.665834 10.4572 0.435284 9.28493 0.435669ZM11.5462 12.5936L9.28493 10.3324L7.02567 12.5936C6.96197 12.6573 6.88634 12.7079 6.8031 12.7424C6.71987 12.7768 6.63066 12.7946 6.54057 12.7946C6.45047 12.7946 6.36126 12.7768 6.27803 12.7424C6.19479 12.7079 6.11916 12.6573 6.05546 12.5936C5.99175 12.5299 5.94122 12.4543 5.90674 12.3711C5.87227 12.2878 5.85452 12.1986 5.85452 12.1085C5.85452 12.0184 5.87227 11.9292 5.90674 11.846C5.94122 11.7628 5.99175 11.6871 6.05546 11.6234L8.31668 9.36025L6.05742 7.10098C5.92902 6.97259 5.85688 6.79844 5.85688 6.61686C5.85688 6.43527 5.92902 6.26113 6.05742 6.13273C6.18581 6.00433 6.35996 5.9322 6.54154 5.9322C6.72313 5.9322 6.89727 6.00433 7.02567 6.13273L9.28493 8.39199L11.5481 6.13273C11.6768 6.00407 11.8513 5.93179 12.0332 5.93179C12.2152 5.93179 12.3897 6.00407 12.5183 6.13273C12.647 6.26139 12.7193 6.43589 12.7193 6.61784C12.7193 6.79979 12.647 6.97428 12.5183 7.10294L10.2571 9.36025L12.5183 11.6215C12.5822 11.6851 12.6329 11.7607 12.6675 11.8439C12.702 11.9272 12.7198 12.0164 12.7198 12.1066C12.7198 12.1967 12.702 12.286 12.6675 12.3692C12.6329 12.4525 12.5822 12.5281 12.5183 12.5917C12.4548 12.6557 12.3793 12.7065 12.2962 12.7413C12.213 12.776 12.1238 12.794 12.0336 12.7942C11.9435 12.7944 11.8542 12.7767 11.7709 12.7423C11.6875 12.7079 11.6118 12.6574 11.5481 12.5936H11.5462Z" fill="#C49A6C"/>
</svg>
