<svg width="12" height="4" viewBox="0 0 12 4" fill="none" xmlns="http://www.w3.org/2000/svg">
<path d="M2.66667 2.00002C2.66667 2.35364 2.52619 2.69278 2.27614 2.94283C2.02609 3.19288 1.68696 3.33335 1.33333 3.33335C0.979711 3.33335 0.640573 3.19288 0.390524 2.94283C0.140476 2.69278 0 2.35364 0 2.00002C0 1.6464 0.140476 1.30726 0.390524 1.05721C0.640573 0.807163 0.979711 0.666687 1.33333 0.666687C1.68696 0.666687 2.02609 0.807163 2.27614 1.05721C2.52619 1.30726 2.66667 1.6464 2.66667 2.00002ZM7.33333 2.00002C7.33333 2.35364 7.19286 2.69278 6.94281 2.94283C6.69276 3.19288 6.35362 3.33335 6 3.33335C5.64638 3.33335 5.30724 3.19288 5.05719 2.94283C4.80714 2.69278 4.66667 2.35364 4.66667 2.00002C4.66667 1.6464 4.80714 1.30726 5.05719 1.05721C5.30724 0.807163 5.64638 0.666687 6 0.666687C6.35362 0.666687 6.69276 0.807163 6.94281 1.05721C7.19286 1.30726 7.33333 1.6464 7.33333 2.00002ZM12 2.00002C12 2.35364 11.8595 2.69278 11.6095 2.94283C11.3594 3.19288 11.0203 3.33335 10.6667 3.33335C10.313 3.33335 9.97391 3.19288 9.72386 2.94283C9.47381 2.69278 9.33333 2.35364 9.33333 2.00002C9.33333 1.6464 9.47381 1.30726 9.72386 1.05721C9.97391 0.807163 10.313 0.666687 10.6667 0.666687C11.0203 0.666687 11.3594 0.807163 11.6095 1.05721C11.8595 1.30726 12 1.6464 12 2.00002Z" fill="#1A1A1A"/>
</svg>
