<svg width="19" height="17" viewBox="0 0 19 17" fill="none" xmlns="http://www.w3.org/2000/svg">
<g clip-path="url(#clip0_80_1220)">
<path d="M19.0002 3.82952C18.9746 4.88063 18.537 5.82795 17.6287 6.58878C17.4873 6.70688 17.4263 6.81628 17.4477 7.00649C17.5129 7.58457 16.9381 8.03399 16.3092 7.94385C16.217 7.9308 16.0818 7.98674 16.0097 8.05015C15.0313 8.91665 14.0599 9.79061 13.0871 10.6621C11.986 11.6492 10.8821 12.6344 9.78798 13.6277C9.71309 13.6961 9.66317 13.826 9.67149 13.923C9.72904 14.5595 9.20276 15.0021 8.48997 14.907C8.42895 14.8989 8.34436 14.9076 8.30137 14.9405C7.48249 15.5615 6.49789 15.8288 5.47862 16.0432C4.09949 16.3335 2.72659 16.6505 1.35301 16.9613C0.896764 17.0645 0.517485 16.9644 0.20477 16.653C0.0237981 16.4728 -0.0399929 16.2589 0.0244914 16.0265C0.484202 14.3736 0.94322 12.7208 1.41472 11.0705C1.5631 10.5521 1.87998 10.1058 2.25302 9.6924C2.34939 9.58549 2.39585 9.49163 2.36534 9.33934C2.25302 8.78239 2.85903 8.27019 3.48515 8.3597C3.57598 8.37276 3.70981 8.33981 3.7736 8.28325C5.87731 6.40727 7.97548 4.52633 10.0695 2.64103C10.1277 2.58881 10.1589 2.47879 10.1465 2.40358C10.0466 1.80809 10.6173 1.2959 11.276 1.38168C11.3772 1.39473 11.5249 1.33754 11.5991 1.26792C12.2516 0.656897 13.0233 0.24913 13.9552 0.0794349C16.5928 -0.40168 19.0023 1.3593 18.9995 3.82952H19.0002ZM11.4424 3.84941C9.32827 5.74403 7.2197 7.6343 5.12708 9.50965C6.21152 10.4818 7.30984 11.4671 8.38319 12.4287C10.4772 10.5521 12.5913 8.65744 14.6964 6.7709C13.6224 5.80681 12.5296 4.82531 11.4431 3.84941H11.4424ZM7.03942 13.7458C5.89465 12.7196 4.79703 11.7362 3.65364 10.7112C3.53161 10.9642 3.36797 11.2128 3.28892 11.4814C2.96442 12.581 2.66488 13.6868 2.35841 14.7913C2.34593 14.8373 2.35702 14.8889 2.35702 14.9542C3.60996 14.672 4.84348 14.4053 6.06938 14.1113C6.40428 14.0311 6.71561 13.8708 7.04011 13.7458H7.03942ZM12.886 2.5136C13.9954 3.51064 15.0937 4.49649 16.1983 5.48855C16.9388 4.90177 17.3638 4.1888 17.0913 3.27319C16.8348 2.41104 16.1955 1.86652 15.2074 1.70988C14.2547 1.55883 13.4865 1.88082 12.8867 2.5136H12.886Z" fill="black"/>
<path d="M11.443 3.84912C12.5302 4.82503 13.6229 5.80652 14.6963 6.77062C12.5912 8.65716 10.4771 10.5518 8.38307 12.4284C7.31041 11.4661 6.2114 10.4815 5.12695 9.50936C7.21957 7.63401 9.32814 5.74374 11.4423 3.84912H11.443Z" fill="white"/>
<path d="M7.03822 13.7465C6.71441 13.8709 6.40308 14.0312 6.06749 14.112C4.84159 14.4054 3.60807 14.6727 2.35513 14.9549C2.35513 14.8897 2.34404 14.8387 2.35652 14.7921C2.66299 13.6881 2.96253 12.5823 3.28703 11.4821C3.36608 11.2135 3.52972 10.9649 3.65175 10.7119C4.79513 11.7369 5.89206 12.7203 7.03753 13.7465H7.03822Z" fill="white"/>
<path d="M12.8845 2.51344C13.4843 1.88065 14.2532 1.55867 15.2052 1.70971C16.1926 1.86636 16.8319 2.41025 17.0891 3.27303C17.3616 4.18864 16.9366 4.90161 16.1961 5.48839C15.0915 4.49633 13.9939 3.51048 12.8838 2.51344H12.8845Z" fill="white"/>
</g>
<defs>
<clipPath id="clip0_80_1220">
<rect width="19" height="17" fill="white"/>
</clipPath>
</defs>
</svg>
