<svg width="17" height="16" viewBox="0 0 17 16" fill="none" xmlns="http://www.w3.org/2000/svg">
<g clip-path="url(#clip0_56_834)">
<path d="M16.7284 3.60384C16.7059 4.59298 16.3234 5.48443 15.5292 6.20041C15.4055 6.31154 15.3521 6.41449 15.3709 6.59349C15.4279 7.13749 14.9253 7.5604 14.3754 7.47558C14.2948 7.4633 14.1766 7.51594 14.1135 7.57561C13.2581 8.39102 12.4087 9.21345 11.5581 10.0335C10.5954 10.9624 9.63018 11.8896 8.67349 12.8243C8.60802 12.8887 8.56436 13.0109 8.57164 13.1022C8.62196 13.7011 8.1618 14.1176 7.53856 14.0281C7.48521 14.0205 7.41125 14.0287 7.37366 14.0597C6.65766 14.6441 5.79676 14.8956 4.90554 15.0974C3.69968 15.3706 2.49927 15.6689 1.29826 15.9614C0.899333 16.0585 0.567705 15.9643 0.294278 15.6712C0.136043 15.5016 0.080266 15.3004 0.136649 15.0816C0.538604 13.5262 0.939952 11.9709 1.35221 10.4179C1.48196 9.93001 1.75902 9.51002 2.08519 9.12103C2.16946 9.02042 2.21008 8.93209 2.18341 8.78878C2.08519 8.26467 2.61507 7.78268 3.16253 7.86691C3.24195 7.8792 3.35896 7.84819 3.41473 7.79496C5.25415 6.0296 7.08871 4.25956 8.91964 2.48543C8.97056 2.43629 8.99785 2.33276 8.98693 2.26198C8.89963 1.7016 9.39859 1.21961 9.97454 1.30033C10.0631 1.31261 10.1922 1.2588 10.2571 1.19329C10.8276 0.618286 11.5023 0.234563 12.3172 0.0748732C14.6234 -0.377873 16.7302 1.27927 16.7277 3.60384H16.7284ZM10.12 3.62256C8.27154 5.40547 6.42788 7.18428 4.59817 8.94906C5.54637 9.86391 6.5067 10.791 7.4452 11.696C9.27612 9.93001 11.1246 8.1471 12.9653 6.37179C12.0261 5.46455 11.0707 4.54092 10.1207 3.62256H10.12ZM6.27025 12.9354C5.2693 11.9697 4.30958 11.0443 3.30985 10.0798C3.20315 10.3178 3.06007 10.5518 2.99095 10.8045C2.70722 11.8393 2.44531 12.8799 2.17734 13.9193C2.16643 13.9626 2.17613 14.0112 2.17613 14.0726C3.27166 13.807 4.3502 13.5561 5.42208 13.2794C5.71491 13.2039 5.98712 13.053 6.27086 12.9354H6.27025ZM11.3823 2.36551C12.3523 3.30376 13.3126 4.23148 14.2784 5.16505C14.9259 4.61287 15.2976 3.94194 15.0593 3.08031C14.835 2.269 14.276 1.75659 13.4121 1.60918C12.5791 1.46704 11.9073 1.77004 11.3829 2.36551H11.3823Z" fill="#C49A6C"/>
<path d="M10.1201 3.62268C11.0708 4.54104 12.0262 5.46467 12.9647 6.37192C11.1241 8.14722 9.27561 9.93013 7.44469 11.6961C6.50679 10.7906 5.54586 9.86403 4.59766 8.94918C6.42737 7.1844 8.27103 5.40559 10.1195 3.62268H10.1201Z" fill="white"/>
<path d="M6.2696 12.9354C5.98647 13.0524 5.71426 13.2033 5.42082 13.2794C4.34894 13.5554 3.2704 13.807 2.17487 14.0725C2.17487 14.0111 2.16517 13.9632 2.17608 13.9193C2.44405 12.8804 2.70596 11.8398 2.98969 10.8045C3.05881 10.5518 3.20189 10.3178 3.30859 10.0797C4.30832 11.0443 5.26744 11.9697 6.26899 12.9354H6.2696Z" fill="white"/>
<path d="M11.3824 2.36548C11.9069 1.77001 12.5792 1.46701 13.4116 1.60915C14.2749 1.75656 14.8339 2.26838 15.0588 3.08029C15.2971 3.94191 14.9255 4.61284 14.278 5.16503C13.3122 4.23146 12.3525 3.30373 11.3818 2.36548H11.3824Z" fill="white"/>
</g>
<defs>
<clipPath id="clip0_56_834">
<rect width="16.6129" height="15.9976" fill="white" transform="translate(0.115234)"/>
</clipPath>
</defs>
</svg>
