<svg width="64" height="64" viewBox="0 0 64 64" fill="none" xmlns="http://www.w3.org/2000/svg">
<path d="M63.4808 31.7349C63.4808 37.478 62.0661 42.7777 59.2368 47.634C56.4075 52.4903 52.5647 56.3331 47.7084 59.1625C42.8521 61.9918 37.5524 63.4065 31.8092 63.4065C26.0661 63.4065 20.7664 61.9918 15.9101 59.1625C11.0538 56.3331 7.21101 52.4903 4.38168 47.634C1.55236 42.7777 0.137695 37.478 0.137695 31.7349C0.137695 25.9918 1.55236 20.6921 4.38168 15.8358C7.21101 10.9795 11.0538 7.13667 15.9101 4.30734C20.7664 1.47802 26.0661 0.0633545 31.8092 0.0633545C37.5524 0.0633545 42.8521 1.47802 47.7084 4.30734C52.5647 7.13667 56.4075 10.9795 59.2368 15.8358C62.0661 20.6921 63.4808 25.9918 63.4808 31.7349ZM42.0075 46.4305L46.5048 41.9331L36.3066 31.7349L46.5048 21.5367L42.0075 17.0393L31.8092 27.2375L21.611 17.0393L17.1136 21.5367L27.3119 31.7349L17.1136 41.9331L21.611 46.4305L31.8092 36.2323L42.0075 46.4305Z" fill="#FB3746"/>
</svg>
