<svg width="17" height="15" viewBox="0 0 17 15" fill="none" xmlns="http://www.w3.org/2000/svg">
<path fill-rule="evenodd" clip-rule="evenodd" d="M14.5666 3.19138V6.36191C15.5225 6.48657 16.2357 7.2618 16.2384 8.17916V13.9967C16.2384 14.1369 16.1189 14.2506 15.9714 14.2506H0.856894C0.709406 14.2506 0.589844 14.1369 0.589844 13.9967V8.17916C0.592564 7.2618 1.30575 6.48657 2.26166 6.36191V3.19138C2.26393 1.73796 3.5026 0.560268 5.03127 0.558105H11.797C13.3257 0.560268 14.5643 1.73796 14.5666 3.19138ZM11.797 1.06524H5.03125C3.79686 1.06669 2.79657 2.01774 2.79505 3.19136V6.36189C3.75068 6.48685 4.46351 7.262 4.46618 8.17914V9.23141H12.362V8.17914C12.3647 7.262 13.0775 6.48685 14.0332 6.36189V3.19136C14.0317 2.01774 13.0314 1.06669 11.797 1.06524ZM4.46582 9.73804H12.3617V10.9297H4.46582V9.73804ZM1.8166 6.99719C1.37722 7.24251 1.1119 7.69471 1.12317 8.17905V13.7414H3.93339V8.17905C3.94467 7.69471 3.67935 7.24251 3.23997 6.99719C2.80059 6.75188 2.25598 6.75188 1.8166 6.99719ZM4.46582 11.4359H12.3617V13.7433H4.46582V11.4359ZM12.8947 13.7434H15.7049V8.1811C15.7162 7.69676 15.4509 7.24456 15.0115 6.99925C14.5721 6.75393 14.0275 6.75393 13.5881 6.99925C13.1488 7.24456 12.8835 7.69676 12.8947 8.1811V13.7434Z" fill="#777777"/>
<path d="M14.5666 6.36191H14.1754V6.70542L14.516 6.74984L14.5666 6.36191ZM14.5666 3.19138H14.9578L14.9578 3.19077L14.5666 3.19138ZM16.2384 8.17916H16.6296L16.6296 8.178L16.2384 8.17916ZM0.589844 8.17916L0.198629 8.178V8.17916H0.589844ZM2.26166 6.36191L2.31225 6.74984L2.65287 6.70542V6.36191H2.26166ZM2.26166 3.19138L1.87044 3.19077V3.19138H2.26166ZM5.03127 0.558105V0.166891L5.03072 0.166891L5.03127 0.558105ZM11.797 0.558105L11.7975 0.166891H11.797V0.558105ZM5.03125 1.06524V0.674028L5.0308 0.674029L5.03125 1.06524ZM11.797 1.06524L11.7974 0.674028H11.797V1.06524ZM2.79505 3.19136L2.40384 3.19086V3.19136H2.79505ZM2.79505 6.36189H2.40384V6.70528L2.74433 6.74981L2.79505 6.36189ZM4.46618 8.17914H4.8574L4.85739 8.178L4.46618 8.17914ZM4.46618 9.23141H4.07497V9.62262H4.46618V9.23141ZM12.362 9.23141V9.62262H12.7533V9.23141H12.362ZM12.362 8.17914L11.9708 8.178V8.17914H12.362ZM14.0332 6.36189L14.0839 6.74981L14.4244 6.70528V6.36189H14.0332ZM14.0332 3.19136H14.4244V3.19086L14.0332 3.19136ZM12.3617 9.73804H12.7529V9.34682H12.3617V9.73804ZM4.46582 9.73804V9.34682H4.07461V9.73804H4.46582ZM12.3617 10.9297V11.3209H12.7529V10.9297H12.3617ZM4.46582 10.9297H4.07461V11.3209H4.46582V10.9297ZM1.12317 8.17905H1.51449L1.51428 8.16994L1.12317 8.17905ZM1.8166 6.99719L2.00731 7.33877L2.00731 7.33877L1.8166 6.99719ZM1.12317 13.7414H0.731959V14.1326H1.12317V13.7414ZM3.93339 13.7414V14.1326H4.32461V13.7414H3.93339ZM3.93339 8.17905L3.54218 8.16994V8.17905H3.93339ZM3.23997 6.99719L3.04926 7.33877L3.04926 7.33877L3.23997 6.99719ZM12.3617 11.4359H12.7529V11.0447H12.3617V11.4359ZM4.46582 11.4359V11.0447H4.07461V11.4359H4.46582ZM12.3617 13.7433V14.1345H12.7529V13.7433H12.3617ZM4.46582 13.7433H4.07461V14.1345H4.46582V13.7433ZM15.7049 13.7434V14.1346H16.0962V13.7434H15.7049ZM12.8947 13.7434H12.5035V14.1346H12.8947V13.7434ZM15.7049 8.1811L15.3137 8.17199V8.1811H15.7049ZM15.0115 6.99925L15.2022 6.65767L15.0115 6.99925ZM13.5881 6.99925L13.3974 6.65767L13.5881 6.99925ZM12.8947 8.1811H13.286L13.2858 8.172L12.8947 8.1811ZM14.9578 6.36191V3.19138H14.1754V6.36191H14.9578ZM16.6296 8.178C16.6263 7.04973 15.7524 6.12203 14.6172 5.97398L14.516 6.74984C15.2926 6.85112 15.8451 7.47388 15.8472 8.18032L16.6296 8.178ZM16.6296 13.9967V8.17916H15.8472V13.9967H16.6296ZM15.9714 14.6418C16.3161 14.6418 16.6296 14.3714 16.6296 13.9967H15.8472C15.8472 13.9025 15.9216 13.8594 15.9714 13.8594V14.6418ZM0.856894 14.6418H15.9714V13.8594H0.856894V14.6418ZM0.198629 13.9967C0.198629 14.3714 0.512187 14.6418 0.856894 14.6418V13.8594C0.906625 13.8594 0.981058 13.9025 0.981058 13.9967H0.198629ZM0.198629 8.17916V13.9967H0.981058V8.17916H0.198629ZM2.21107 5.97398C1.07585 6.12203 0.201977 7.04973 0.198631 8.178L0.981056 8.18032C0.983151 7.47388 1.53566 6.85112 2.31225 6.74984L2.21107 5.97398ZM1.87044 3.19138V6.36191H2.65287V3.19138H1.87044ZM5.03072 0.166891C3.3052 0.169332 1.87309 1.50345 1.87045 3.19077L2.65287 3.19199C2.65478 1.97247 3.7 0.951203 5.03182 0.949319L5.03072 0.166891ZM11.797 0.166891H5.03127V0.94932H11.797V0.166891ZM14.9578 3.19077C14.9552 1.50345 13.5231 0.169332 11.7975 0.166891L11.7964 0.949319C13.1283 0.951203 14.1735 1.97247 14.1754 3.19199L14.9578 3.19077ZM5.03125 1.45646H11.797V0.674028H5.03125V1.45646ZM3.18627 3.19187C3.18748 2.25223 3.99423 1.45767 5.03171 1.45646L5.0308 0.674029C3.59949 0.675701 2.40566 1.78324 2.40384 3.19086L3.18627 3.19187ZM3.18627 6.36189V3.19136H2.40384V6.36189H3.18627ZM4.85739 8.178C4.85411 7.05 3.98068 6.12238 2.84578 5.97398L2.74433 6.74981C3.52069 6.85132 4.07291 7.47401 4.07497 8.18028L4.85739 8.178ZM4.85739 9.23141V8.17914H4.07497V9.23141H4.85739ZM12.362 8.84019H4.46618V9.62262H12.362V8.84019ZM11.9708 8.17914V9.23141H12.7533V8.17914H11.9708ZM13.9825 5.97398C12.8475 6.12238 11.9741 7.05 11.9708 8.178L12.7533 8.18028C12.7553 7.47401 13.3075 6.85132 14.0839 6.74981L13.9825 5.97398ZM13.642 3.19136V6.36189H14.4244V3.19136H13.642ZM11.7965 1.45646C12.834 1.45767 13.6407 2.25223 13.642 3.19187L14.4244 3.19086C14.4226 1.78324 13.2287 0.675701 11.7974 0.674029L11.7965 1.45646ZM12.3617 9.34682H4.46582V10.1293H12.3617V9.34682ZM12.7529 10.9297V9.73804H11.9705V10.9297H12.7529ZM4.46582 11.3209H12.3617V10.5385H4.46582V11.3209ZM4.07461 9.73804V10.9297H4.85703V9.73804H4.07461ZM1.51428 8.16994C1.50654 7.83751 1.68843 7.51681 2.00731 7.33877L1.62589 6.65561C1.06601 6.9682 0.717254 7.55191 0.732065 8.18815L1.51428 8.16994ZM1.51439 13.7414V8.17905H0.731959V13.7414H1.51439ZM3.93339 13.3502H1.12317V14.1326H3.93339V13.3502ZM3.54218 8.17905V13.7414H4.32461V8.17905H3.54218ZM3.04926 7.33877C3.36814 7.51681 3.55002 7.83751 3.54228 8.16994L4.3245 8.18815C4.33931 7.55191 3.99056 6.9682 3.43068 6.65561L3.04926 7.33877ZM2.00731 7.33877C2.32816 7.15964 2.72841 7.15964 3.04926 7.33877L3.43068 6.65561C2.87277 6.34412 2.18379 6.34412 1.62589 6.65561L2.00731 7.33877ZM12.3617 11.0447H4.46582V11.8271H12.3617V11.0447ZM12.7529 13.7433V11.4359H11.9705V13.7433H12.7529ZM4.46582 14.1345H12.3617V13.3521H4.46582V14.1345ZM4.07461 11.4359V13.7433H4.85703V11.4359H4.07461ZM15.7049 13.3522H12.8947V14.1346H15.7049V13.3522ZM15.3137 8.1811V13.7434H16.0962V8.1811H15.3137ZM14.8208 7.34083C15.1397 7.51887 15.3216 7.83957 15.3138 8.172L16.0961 8.1902C16.1109 7.55396 15.7621 6.97026 15.2022 6.65767L14.8208 7.34083ZM13.7789 7.34083C14.0997 7.16169 14.5 7.16169 14.8208 7.34083L15.2022 6.65767C14.6443 6.34617 13.9553 6.34617 13.3974 6.65767L13.7789 7.34083ZM13.2858 8.172C13.2781 7.83957 13.46 7.51887 13.7789 7.34083L13.3974 6.65767C12.8376 6.97026 12.4888 7.55396 12.5036 8.1902L13.2858 8.172ZM13.2859 13.7434V8.1811H12.5035V13.7434H13.2859Z" fill="#777777"/>
</svg>
