<svg width="28" height="25" viewBox="0 0 28 25" fill="none" xmlns="http://www.w3.org/2000/svg">
<path d="M26.1891 3.58609H24.6799V2.07601C24.6789 1.67582 24.5195 1.29233 24.2365 1.00935C23.9535 0.72638 23.57 0.566951 23.1699 0.565918H2.03548C1.6353 0.566951 1.2518 0.72638 0.968826 1.00935C0.685853 1.29233 0.526423 1.67582 0.525391 2.07601V20.1922C0.526423 20.5923 0.685853 20.9758 0.968826 21.2588C1.2518 21.5418 1.6353 21.7012 2.03548 21.7023H3.54459V23.2153C3.5469 23.6143 3.70663 23.9962 3.98905 24.2781C4.27146 24.56 4.65372 24.7189 5.05272 24.7205H26.1891C26.5884 24.7194 26.9712 24.5607 27.254 24.2788C27.5368 23.9969 27.6968 23.6146 27.6991 23.2153V5.0952C27.6979 4.69519 27.5383 4.31194 27.2554 4.02918C26.9724 3.74642 26.5891 3.58712 26.1891 3.58609ZM3.54459 5.0952V20.1922H2.03841V2.07894H23.164V3.58609H5.05272C4.65304 3.58764 4.2702 3.74716 3.98767 4.02987C3.70515 4.31257 3.54588 4.69553 3.54459 5.0952ZM26.1891 23.2084H5.05272V5.09814H26.1783L26.1891 23.2084ZM23.1699 8.86944C23.1699 9.31725 23.0371 9.755 22.7883 10.1273C22.5395 10.4997 22.1859 10.7899 21.7722 10.9612C21.3584 11.1326 20.9032 11.1775 20.464 11.0901C20.0248 11.0027 19.6214 10.7871 19.3047 10.4704C18.9881 10.1538 18.7724 9.75036 18.6851 9.31116C18.5977 8.87196 18.6425 8.41671 18.8139 8.00299C18.9853 7.58927 19.2755 7.23566 19.6478 6.98687C20.0201 6.73808 20.4579 6.60529 20.9057 6.60529C21.5062 6.60529 22.0821 6.84383 22.5067 7.26845C22.9313 7.69306 23.1699 8.26895 23.1699 8.86944ZM24.6799 21.7013H6.56476V18.6821L11.8462 9.62449L17.8846 17.173H19.3946L24.676 12.6437L24.6799 21.7013Z" fill="white"/>
</svg>
