<svg width="24" height="23" viewBox="0 0 24 23" fill="none" xmlns="http://www.w3.org/2000/svg">
<path fill-rule="evenodd" clip-rule="evenodd" d="M21.5921 18.0491C21.1107 18.8564 20.5326 19.594 19.8088 20.2076C15.7854 17.0895 16.5478 17.6909 16.1785 17.3626C17.4955 16.3624 17.9958 15.4285 18.3747 14.1732C18.4506 13.922 18.4271 13.8238 18.1145 13.8265C16.2529 13.8422 14.3914 13.8341 12.5298 13.8341C12.1355 13.8341 12.1351 13.8338 12.1351 13.428C12.1351 12.1723 12.1413 10.9166 12.1297 9.66134C12.1274 9.41934 12.1702 9.32614 12.4442 9.32691C15.8779 9.33688 19.3116 9.33458 22.7453 9.32998C22.9307 9.32959 23.0471 9.3434 23.0795 9.56776C23.5065 12.5562 23.1639 15.4116 21.5921 18.0491Z" fill="#6689C9"/>
<path fill-rule="evenodd" clip-rule="evenodd" d="M19.8088 20.2076C18.5755 21.3731 17.1194 22.149 15.481 22.5613C11.6187 23.5328 8.05858 22.9188 4.89699 20.4362C3.59004 19.4099 2.56213 18.1419 1.83716 16.6412C3.09516 15.6693 4.35278 14.6974 5.61079 13.7256C5.9569 14.6004 6.38702 15.4273 7.02605 16.1299C9.62377 18.9845 13.3643 19.0743 16.1782 17.3626C16.5305 17.6752 15.7793 17.0845 19.8088 20.2076Z" fill="#4DB74B"/>
<path fill-rule="evenodd" clip-rule="evenodd" d="M5.61115 13.7258C4.35314 14.6976 3.09552 15.6695 1.83752 16.6414C0.209896 13.6299 0.175209 9.40072 1.84715 6.34399C6.02393 9.54531 5.38992 9.06705 5.63967 9.22966C5.13516 10.7254 5.16021 12.2243 5.61115 13.7258Z" fill="#FFCD05"/>
<path fill-rule="evenodd" clip-rule="evenodd" d="M19.6962 3.20694C16.4645 6.35609 16.7123 6.33346 16.478 6.11984C13.2332 3.16168 7.45037 4.28465 5.63968 9.22948C5.39185 9.06802 6.04244 9.5597 1.84717 6.34343C3.01498 3.7876 6.03627 0.832512 10.2069 0.169774C13.7527 -0.394013 16.9262 0.438245 19.6685 2.78812C19.8415 2.93655 19.8843 3.02323 19.6962 3.20694Z" fill="#E22F31"/>
</svg>
