<svg width="31" height="25" viewBox="0 0 31 25" fill="none" xmlns="http://www.w3.org/2000/svg">
<g clip-path="url(#clip0_67_5030)">
<path d="M0 12.4386C0.137317 12.2935 0.261998 12.134 0.412794 12.0061C4.90467 8.21247 9.39739 4.42059 13.8926 0.632112C14.8993 -0.216691 16.104 -0.209013 17.115 0.643202C18.5243 1.83323 19.9312 3.02753 21.3389 4.21926C21.4148 4.28324 21.4948 4.3421 21.6203 4.44021C21.6287 4.29262 21.6397 4.18855 21.6397 4.08362C21.6414 3.03179 21.6397 1.97911 21.6414 0.927273C21.6431 0.255909 21.841 0.0597033 22.5124 0.0597033C23.5714 0.0597033 24.6303 0.0597033 25.6901 0.0597033C26.3969 0.0597033 26.5738 0.236288 26.5738 0.939216C26.5738 3.40117 26.5772 5.86227 26.5679 8.32422C26.5671 8.55455 26.6421 8.69531 26.8122 8.83692C28.0666 9.88107 29.3126 10.9338 30.5619 11.9847C30.6158 12.0308 30.6706 12.076 30.7228 12.1238C31.0564 12.4326 31.0927 12.7619 30.8088 13.1202C30.4608 13.5578 30.1028 13.9869 29.7397 14.4109C29.4145 14.7896 29.075 14.8092 28.6884 14.4825C25.1712 11.5147 21.6557 8.54517 18.1394 5.57649C17.2649 4.83859 16.3905 4.10068 15.4983 3.34828C14.7317 3.9949 13.9735 4.63385 13.2162 5.2728C9.58356 8.33958 5.95098 11.4064 2.31754 14.4723C1.90475 14.8203 1.57283 14.7939 1.22406 14.3742C0.809582 13.8785 0.40774 13.371 0 12.8677C0 12.7243 0 12.5819 0 12.4386Z" fill="#1AAED1"/>
<path d="M17.9454 24.9822V17.5349H13.0466V24.9992C12.9186 24.9992 12.8217 24.9992 12.7257 24.9992C10.4258 24.9992 8.12513 25.0001 5.82528 24.9992C4.92303 24.9992 4.42094 24.4899 4.42094 23.578C4.42094 20.5846 4.42346 17.592 4.41504 14.5986C4.41504 14.3683 4.4917 14.2284 4.66272 14.0859C8.1841 11.1539 11.7021 8.21938 15.2126 5.27459C15.4392 5.08435 15.5647 5.09459 15.7846 5.27885C19.2958 8.22279 22.8139 11.1573 26.3344 14.0902C26.4936 14.2233 26.5787 14.3521 26.5779 14.573C26.5703 17.6074 26.5745 20.6409 26.572 23.6753C26.572 24.4481 26.0471 24.995 25.2847 24.9967C22.9141 25.0035 20.5435 24.9992 18.1729 24.9984C18.1139 24.9984 18.0558 24.9907 17.9454 24.9822Z" fill="#1AAED1"/>
</g>
<defs>
<clipPath id="clip0_67_5030">
<rect width="31" height="25" fill="white"/>
</clipPath>
</defs>
</svg>
