<svg width="14" height="14" viewBox="0 0 14 14" fill="none" xmlns="http://www.w3.org/2000/svg">
<path fill-rule="evenodd" clip-rule="evenodd" d="M6.67572 0C4.91897 0 3.31855 0.580271 2.37153 1.05437C2.28597 1.09715 2.20611 1.13889 2.13196 1.1796C1.98494 1.25972 1.85971 1.33439 1.76015 1.40012L2.83746 2.98614L3.34461 3.18799C5.32655 4.1879 7.98444 4.1879 9.96677 3.18799L10.5424 2.8893L11.561 1.40012C11.3497 1.26287 11.1304 1.13857 10.9041 1.02792C9.96172 0.55888 8.39942 0 6.67611 0M4.17068 1.79526C3.78928 1.72348 3.41252 1.62894 3.04242 1.51213C3.92955 1.11815 5.25149 0.700058 6.67611 0.700058C7.66281 0.700058 8.59583 0.900742 9.36745 1.1551C8.4632 1.28227 7.49829 1.49812 6.57888 1.76376C5.85549 1.973 5.00997 1.95044 4.17068 1.79526ZM10.3779 3.76476L10.2822 3.81298C8.1019 4.91285 5.20988 4.91285 3.02959 3.81298L2.93897 3.76709C-0.336917 7.36111 -2.83768 14 6.67572 14C16.1891 14 13.6277 7.23783 10.3779 3.76476ZM6.27163 7.00058C6.06534 7.00058 5.86749 7.08253 5.72162 7.22841C5.57574 7.37428 5.49379 7.57213 5.49379 7.77843C5.49379 7.98472 5.57574 8.18257 5.72162 8.32844C5.86749 8.47432 6.06534 8.55627 6.27163 8.55627V7.00058ZM7.04948 6.22274V5.83382H6.27163V6.22274C5.85904 6.22274 5.46335 6.38664 5.1716 6.67839C4.87985 6.97014 4.71595 7.36583 4.71595 7.77843C4.71595 8.19102 4.87985 8.58671 5.1716 8.87846C5.46335 9.17021 5.85904 9.33411 6.27163 9.33411V10.8898C5.93327 10.8898 5.64508 10.6739 5.53774 10.3714C5.52181 10.3219 5.49612 10.2761 5.46218 10.2367C5.42825 10.1973 5.38675 10.1651 5.34015 10.142C5.29355 10.1189 5.2428 10.1054 5.19089 10.1023C5.13898 10.0991 5.08697 10.1064 5.03794 10.1238C4.98891 10.1411 4.94385 10.1681 4.90543 10.2031C4.86701 10.2382 4.836 10.2805 4.81425 10.3278C4.79249 10.375 4.78043 10.4261 4.77878 10.4781C4.77713 10.5301 4.78591 10.5819 4.80462 10.6304C4.91185 10.9338 5.11052 11.1964 5.37325 11.3822C5.63599 11.568 5.94986 11.6677 6.27163 11.6676V12.0566H7.04948V11.6676C7.46207 11.6676 7.85776 11.5037 8.14951 11.212C8.44126 10.9202 8.60516 10.5245 8.60516 10.112C8.60516 9.69936 8.44126 9.30367 8.14951 9.01192C7.85776 8.72017 7.46207 8.55627 7.04948 8.55627V7.00058C7.38784 7.00058 7.67603 7.21643 7.78337 7.51902C7.7993 7.56852 7.82499 7.61433 7.85893 7.65373C7.89286 7.69313 7.93436 7.72532 7.98096 7.74841C8.02756 7.77149 8.07831 7.785 8.13022 7.78813C8.18213 7.79125 8.23414 7.78394 8.28317 7.76661C8.3322 7.74929 8.37726 7.72231 8.41568 7.68727C8.4541 7.65222 8.48511 7.60983 8.50686 7.5626C8.52862 7.51536 8.54068 7.46425 8.54233 7.41227C8.54398 7.36029 8.53519 7.30851 8.51649 7.25999C8.40926 6.95661 8.21059 6.69395 7.94786 6.50818C7.68512 6.32241 7.37125 6.22269 7.04948 6.22274ZM7.04948 9.33411V10.8898C7.25577 10.8898 7.45362 10.8078 7.59949 10.662C7.74537 10.5161 7.82732 10.3183 7.82732 10.112C7.82732 9.90566 7.74537 9.70781 7.59949 9.56194C7.45362 9.41606 7.25577 9.33411 7.04948 9.33411Z" fill="#C49A6C"/>
</svg>
