<svg width="24" height="24" viewBox="0 0 24 24" fill="none" xmlns="http://www.w3.org/2000/svg">
<path d="M11.923 3.8834C11.4744 3.8834 11.1104 3.51931 11.1104 3.0707V2.25801C11.1104 1.8094 11.4744 1.44531 11.923 1.44531C12.3717 1.44531 12.7357 1.8094 12.7357 2.25801V3.0707C12.7357 3.51931 12.3717 3.8834 11.923 3.8834Z" fill="#15224F"/>
<path d="M19.0155 10.9765C18.5669 10.9765 18.2028 10.6124 18.2028 10.1638C18.2028 6.86104 15.5209 4.04668 12.2246 3.89064C8.92424 3.73826 5.98187 6.27996 5.67101 9.56366C5.65232 9.75993 5.64297 9.96148 5.64297 10.1638C5.64297 10.6124 5.27888 10.9765 4.83027 10.9765C4.38167 10.9765 4.01758 10.6124 4.01758 10.1638C4.01758 9.91028 4.02936 9.65672 4.05293 9.41047C4.44424 5.27547 8.14892 2.07182 12.3014 2.26728C16.4518 2.46354 19.8282 6.00609 19.8282 10.1638C19.8282 10.6129 19.4641 10.9765 19.0155 10.9765Z" fill="#15224F"/>
<path d="M20.5386 16.5193C20.3383 16.5193 20.1372 16.4454 19.9799 16.2971C18.8503 15.2276 18.2021 13.7216 18.2021 12.1657C18.2021 11.7171 18.5662 11.353 19.0148 11.353C19.4635 11.353 19.8275 11.7171 19.8275 12.1657C19.8275 13.2771 20.2904 14.3531 21.0974 15.1166C21.4233 15.425 21.4375 15.9395 21.1291 16.2658C20.9694 16.434 20.754 16.5193 20.5386 16.5193Z" fill="#15224F"/>
<path d="M3.30592 16.5193C3.09015 16.5193 2.87519 16.4344 2.71549 16.2654C2.40708 15.9395 2.4213 15.425 2.74719 15.1166C3.5542 14.3531 4.01703 13.2775 4.01703 12.1657C4.01703 11.7171 4.38112 11.353 4.82973 11.353C5.27833 11.353 5.64242 11.7171 5.64242 12.1657C5.64242 13.7224 4.9943 15.2284 3.86465 16.2971C3.70698 16.4454 3.50625 16.5193 3.30592 16.5193Z" fill="#15224F"/>
<path d="M11.9229 22.5754C9.72045 22.5754 7.85938 20.7143 7.85938 18.5119C7.85938 18.0633 8.22346 17.6992 8.67207 17.6992C9.12068 17.6992 9.48477 18.0633 9.48477 18.5119C9.48477 19.8334 10.6014 20.95 11.9229 20.95C13.2443 20.95 14.3609 19.8334 14.3609 18.5119C14.3609 18.0633 14.725 17.6992 15.1736 17.6992C15.6222 17.6992 15.9863 18.0633 15.9863 18.5119C15.9863 20.7143 14.1253 22.5754 11.9229 22.5754Z" fill="#15224F"/>
<path d="M4.42349 19.3249C3.43322 19.3249 2.55225 18.7194 2.17882 17.7824C1.80498 16.8441 2.02806 15.7978 2.7473 15.1167C3.07319 14.8079 3.58722 14.8221 3.89645 15.148C4.20487 15.4739 4.19105 15.9883 3.86516 16.2972C3.5092 16.6344 3.64005 17.0591 3.68881 17.181C3.73716 17.3021 3.93343 17.6995 4.42349 17.6995C4.87209 17.6995 5.23618 18.0636 5.23618 18.5122C5.23618 18.9608 4.8725 19.3249 4.42349 19.3249Z" fill="#15224F"/>
<path d="M19.4221 19.3248C18.9735 19.3248 18.6094 18.9607 18.6094 18.5121C18.6094 18.0635 18.9735 17.6994 19.4221 17.6994C19.9125 17.6994 20.1092 17.3004 20.158 17.1781C20.2063 17.0566 20.3368 16.6336 19.9808 16.2967C19.6549 15.9879 19.6407 15.4739 19.9491 15.1476C20.2579 14.8217 20.772 14.8075 21.0982 15.1159C21.8175 15.7969 22.041 16.8425 21.6679 17.7791C21.2941 18.7181 20.4123 19.3248 19.4221 19.3248Z" fill="#15224F"/>
<path d="M4.8293 12.9781C4.38069 12.9781 4.0166 12.614 4.0166 12.1654V10.1638C4.0166 9.71516 4.38069 9.35107 4.8293 9.35107C5.27791 9.35107 5.642 9.71516 5.642 10.1638V12.1654C5.642 12.614 5.27832 12.9781 4.8293 12.9781Z" fill="#15224F"/>
<path d="M19.0158 12.9781C18.5672 12.9781 18.2031 12.614 18.2031 12.1654V10.1638C18.2031 9.71516 18.5672 9.35107 19.0158 9.35107C19.4644 9.35107 19.8285 9.71516 19.8285 10.1638V12.1654C19.8285 12.614 19.4644 12.9781 19.0158 12.9781Z" fill="#15224F"/>
<path d="M19.4214 19.3246H4.42305C3.97444 19.3246 3.61035 18.9605 3.61035 18.5119C3.61035 18.0633 3.97444 17.6992 4.42305 17.6992H19.4209C19.8696 17.6992 20.2336 18.0633 20.2336 18.5119C20.2336 18.9605 19.87 19.3246 19.4214 19.3246Z" fill="#15224F"/>
<circle cx="19" cy="6" r="4" fill="#F0DD2C" stroke="#2C2717" stroke-width="2"/>
</svg>
