<svg width="16" height="16" viewBox="0 0 16 16" fill="none" xmlns="http://www.w3.org/2000/svg">
<path fill-rule="evenodd" clip-rule="evenodd" d="M1.20215 13.8534C1.20215 14.625 1.82772 15.2506 2.59934 15.2506H13.4975C14.2691 15.2506 14.8947 14.625 14.8947 13.8534V2.9553C14.8947 2.18368 14.2691 1.55811 13.4975 1.55811H2.59934C1.82772 1.55811 1.20215 2.18368 1.20215 2.9553V13.8534Z" stroke="#777777" stroke-width="1.36925" stroke-linecap="round" stroke-linejoin="round"/>
<path fill-rule="evenodd" clip-rule="evenodd" d="M7.42157 8.88784H8.42979C9.40512 8.88784 10.192 8.10103 10.192 7.14209C10.192 6.16657 9.40512 5.37976 8.42979 5.37976H6.97074H6.96255C6.71664 5.37976 6.51172 5.57639 6.51172 5.83059V10.6666C6.51172 10.9126 6.71664 11.1174 6.96255 11.1174C7.21665 11.1174 7.42157 10.9126 7.42157 10.6666V8.88784ZM8.42986 7.97807H7.42165V6.28961H8.42986C8.90519 6.28961 9.27396 6.66666 9.28225 7.14208C9.27405 7.60111 8.90528 7.97807 8.42986 7.97807Z" fill="#777777"/>
</svg>
