<svg width="21" height="20" viewBox="0 0 21 20" fill="none" xmlns="http://www.w3.org/2000/svg">
<path d="M19.0105 16.771C19.0105 16.771 17.8518 17.909 17.5679 18.2427C17.1053 18.7363 16.5604 18.9693 15.8459 18.9693C15.7772 18.9693 15.704 18.9693 15.6353 18.9648C14.2751 18.8779 13.0111 18.3478 12.0631 17.8953C9.47099 16.643 7.19487 14.8652 5.30346 12.612C3.74178 10.7336 2.69761 8.99687 2.00608 7.13217C1.58016 5.99415 1.42446 5.1075 1.49315 4.27113C1.53895 3.7364 1.74503 3.29308 2.12515 2.91374L3.68683 1.35526C3.91123 1.14502 4.14938 1.03076 4.38294 1.03076C4.67146 1.03076 4.90503 1.20443 5.05158 1.35069C5.05616 1.35526 5.06074 1.35983 5.06531 1.3644C5.34468 1.62491 5.6103 1.89456 5.88966 2.18249C6.03163 2.32874 6.17818 2.47499 6.32473 2.62581L7.57499 3.87351C8.06044 4.35797 8.06044 4.80586 7.57499 5.29032C7.44218 5.42286 7.31395 5.5554 7.18114 5.68337C6.79644 6.07642 7.09864 5.77483 6.70021 6.13132C6.69105 6.14046 6.68189 6.14503 6.67731 6.15417C6.28345 6.54722 6.35673 6.93113 6.43916 7.19164C6.44374 7.20535 6.44832 7.21906 6.4529 7.23277C6.77806 8.01887 7.23603 8.75926 7.93214 9.64134L7.93673 9.64591C9.20072 11.1998 10.5334 12.411 12.0035 13.3387C12.1913 13.4576 12.3836 13.5536 12.5668 13.645C12.7317 13.7272 12.8874 13.8049 13.0202 13.8872C13.0385 13.8963 13.0568 13.91 13.0751 13.9192C13.2309 13.9969 13.3774 14.0334 13.5285 14.0334C13.9087 14.0334 14.1468 13.7958 14.2247 13.7181L15.1223 12.8222C15.278 12.6668 15.5253 12.4795 15.8139 12.4795C16.0978 12.4795 16.3314 12.6577 16.4733 12.8131C16.4779 12.8177 16.4779 12.8177 16.4825 12.8222L19.0059 15.3405C19.4776 15.8067 19.0105 16.771 19.0105 16.771Z" stroke="#C49633" stroke-width="2" stroke-linecap="round" stroke-linejoin="round"/>
</svg>
