<svg width="15" height="19" viewBox="0 0 15 19" fill="none" xmlns="http://www.w3.org/2000/svg">
<path fill-rule="evenodd" clip-rule="evenodd" d="M6.82164 0.873738C3.0211 1.06509 0 4.12077 0 7.86238C0 9.44123 0.538134 10.8978 1.44544 12.0687H1.4453L6.3178 18.4335C6.75749 19.0078 7.64244 19.0078 8.08214 18.4335L12.9546 12.0686H12.9545C13.7866 10.995 14.308 9.68116 14.389 8.25304C14.6236 4.11159 11.0833 0.659312 6.82164 0.873738ZM11.0004 8.06465C11.0004 10.1633 9.29907 11.8646 7.20039 11.8646C5.10171 11.8646 3.40039 10.1633 3.40039 8.06465C3.40039 5.96597 5.10171 4.26465 7.20039 4.26465C9.29907 4.26465 11.0004 5.96597 11.0004 8.06465Z" fill="#04B4B6"/>
</svg>
