<svg width="14" height="18" viewBox="0 0 14 18" fill="none" xmlns="http://www.w3.org/2000/svg">
<path d="M13.6666 7.27311C13.6666 10.9548 6.99992 17.2731 6.99992 17.2731C6.99992 17.2731 0.333252 10.9548 0.333252 7.27311C0.333252 5.505 1.03563 3.80931 2.28587 2.55907C3.53612 1.30882 5.23181 0.606445 6.99992 0.606445C8.76803 0.606445 10.4637 1.30882 11.714 2.55907C12.9642 3.80931 13.6666 5.505 13.6666 7.27311Z" fill="#1F4C6B"/>
<path d="M7 7.93945C7.26522 7.93945 7.51957 7.8341 7.70711 7.64656C7.89464 7.45902 8 7.20467 8 6.93945C8 6.67424 7.89464 6.41988 7.70711 6.23235C7.51957 6.04481 7.26522 5.93945 7 5.93945C6.73478 5.93945 6.48043 6.04481 6.29289 6.23235C6.10536 6.41988 6 6.67424 6 6.93945C6 7.20467 6.10536 7.45902 6.29289 7.64656C6.48043 7.8341 6.73478 7.93945 7 7.93945Z" fill="white" stroke="white" stroke-width="1.25" stroke-linecap="round" stroke-linejoin="round"/>
</svg>
