<svg width="12" height="16" viewBox="0 0 12 16" fill="none" xmlns="http://www.w3.org/2000/svg">
<path d="M5.75142 0.00146484C4.29883 0.00146484 2.90573 0.578505 1.87859 1.60564C0.851453 2.63278 0.274414 4.02588 0.274414 5.47847C0.274414 9.58622 5.75142 15.65 5.75142 15.65C5.75142 15.65 11.2284 9.58622 11.2284 5.47847C11.2284 4.02588 10.6514 2.63278 9.62424 1.60564C8.5971 0.578505 7.20401 0.00146484 5.75142 0.00146484ZM5.75142 7.43454C5.36454 7.43454 4.98635 7.31982 4.66468 7.10488C4.34301 6.88995 4.09229 6.58445 3.94424 6.22702C3.79619 5.8696 3.75745 5.4763 3.83293 5.09686C3.9084 4.71742 4.0947 4.36888 4.36826 4.09531C4.64183 3.82175 4.99036 3.63546 5.36981 3.55998C5.74925 3.4845 6.14255 3.52324 6.49997 3.67129C6.8574 3.81934 7.16289 4.07006 7.37783 4.39173C7.59277 4.71341 7.70749 5.09159 7.70749 5.47847C7.70749 5.99725 7.5014 6.49478 7.13457 6.86162C6.76773 7.22845 6.2702 7.43454 5.75142 7.43454Z" fill="#C49A6C"/>
</svg>
