<svg width="17" height="15" viewBox="0 0 17 15" fill="none" xmlns="http://www.w3.org/2000/svg">
<path fill-rule="evenodd" clip-rule="evenodd" d="M1.17669 2.1156C1.14034 2.14912 1.09106 2.16789 1.03973 2.16776C0.987965 2.16803 0.938261 2.14903 0.901814 2.11504C0.865367 2.08104 0.845243 2.03491 0.845977 1.98704C0.83557 1.47978 1.1222 1.00689 1.59549 0.750441C2.06879 0.493994 2.65493 0.493994 3.12823 0.750441C3.60152 1.00689 3.88815 1.47978 3.87774 1.98704V5.16071H9.82667V1.98704C9.82667 1.41022 9.32111 0.942612 8.69746 0.942612C8.07382 0.942612 7.56826 1.41022 7.56826 1.98704C7.5628 2.08218 7.47779 2.15674 7.37478 2.15674C7.27177 2.15674 7.18677 2.08218 7.18131 1.98704C7.18131 1.21255 7.86011 0.584711 8.69746 0.584711C9.53481 0.584711 10.2136 1.21255 10.2136 1.98704V9.9154C10.2174 9.9816 10.1814 10.0443 10.12 10.0785C10.0585 10.1127 9.98174 10.1127 9.92032 10.0785C9.85889 10.0443 9.82287 9.9816 9.82667 9.9154V8.41009H3.87829V9.9154C3.88209 9.9816 3.84607 10.0443 3.78464 10.0785C3.72321 10.1127 3.64641 10.1127 3.58499 10.0785C3.52356 10.0443 3.48753 9.9816 3.49134 9.9154V1.98906C3.50034 1.61054 3.28715 1.25715 2.93416 1.06545C2.58117 0.873746 2.14365 0.873746 1.79065 1.06545C1.43766 1.25715 1.22448 1.61054 1.23348 1.98906C1.23348 2.03654 1.21305 2.08207 1.17669 2.1156ZM9.82685 5.52063H3.87793V8.05421H9.82685V5.52063Z" fill="#777777"/>
<path d="M1.03973 2.16776L1.04049 1.87434L1.03816 1.87435L1.03973 2.16776ZM1.17669 2.1156L0.977769 1.89992L0.977768 1.89992L1.17669 2.1156ZM0.901814 2.11504L0.701683 2.3296H0.701683L0.901814 2.11504ZM0.845977 1.98704L1.13954 1.99154L1.13933 1.98102L0.845977 1.98704ZM1.59549 0.750441L1.73527 1.00842L1.59549 0.750441ZM3.12823 0.750441L3.26801 0.492465V0.492465L3.12823 0.750441ZM3.87774 1.98704L3.58433 1.98102V1.98704H3.87774ZM3.87774 5.16071H3.58433V5.45412H3.87774V5.16071ZM9.82667 5.16071V5.45412H10.1201V5.16071H9.82667ZM7.56826 1.98704L7.86119 2.00387L7.86167 1.99546V1.98704H7.56826ZM7.18131 1.98704H6.8879V1.99546L6.88838 2.00387L7.18131 1.98704ZM10.2136 9.9154H9.92021V9.92382L9.92069 9.93223L10.2136 9.9154ZM9.82667 9.9154L10.1196 9.93223L10.1201 9.92382V9.9154H9.82667ZM9.82667 8.41009H10.1201V8.11668H9.82667V8.41009ZM3.87829 8.41009V8.11668H3.58488V8.41009H3.87829ZM3.87829 9.9154H3.58488V9.92382L3.58536 9.93223L3.87829 9.9154ZM3.78464 10.0785L3.64205 9.82206L3.64205 9.82206L3.78464 10.0785ZM3.58499 10.0785L3.72758 9.82206L3.72758 9.82206L3.58499 10.0785ZM3.49134 9.9154L3.78427 9.93223L3.78475 9.92382V9.9154H3.49134ZM3.49134 1.98906L3.19793 1.98208V1.98906H3.49134ZM2.93416 1.06545L2.79413 1.32329L2.93416 1.06545ZM1.79065 1.06545L1.93068 1.32329L1.79065 1.06545ZM1.23348 1.98906L1.52697 1.98906L1.5268 1.98209L1.23348 1.98906ZM3.87793 5.52063V5.22722H3.58452V5.52063H3.87793ZM9.82685 5.52063H10.1203V5.22722H9.82685V5.52063ZM3.87793 8.05421H3.58452V8.34762H3.87793V8.05421ZM9.82685 8.05421V8.34762H10.1203V8.05421H9.82685ZM1.03896 2.46117C1.16117 2.46149 1.28264 2.41703 1.37562 2.33128L0.977768 1.89992C0.998046 1.88121 1.02096 1.8743 1.04049 1.87435L1.03896 2.46117ZM0.701683 2.3296C0.795138 2.41677 0.917894 2.46182 1.04129 2.46116L1.03816 1.87435C1.05804 1.87425 1.08138 1.8813 1.10195 1.90047L0.701683 2.3296ZM0.552601 1.98254C0.550537 2.11711 0.607414 2.24167 0.701683 2.3296L1.10195 1.90047C1.12332 1.92041 1.13995 1.95271 1.13935 1.99154L0.552601 1.98254ZM1.45571 0.492465C0.893227 0.797239 0.539802 1.36786 0.552628 1.99306L1.13933 1.98102C1.13134 1.59171 1.35117 1.21654 1.73527 1.00842L1.45571 0.492465ZM3.26801 0.492465C2.70752 0.188771 2.01621 0.188771 1.45571 0.492465L1.73527 1.00842C2.12137 0.799216 2.60235 0.799216 2.98845 1.00842L3.26801 0.492465ZM4.17109 1.99306C4.18392 1.36786 3.83049 0.797239 3.26801 0.492465L2.98845 1.00842C3.37255 1.21654 3.59238 1.59171 3.5844 1.98102L4.17109 1.99306ZM4.17116 5.16071V1.98704H3.58433V5.16071H4.17116ZM9.82667 4.8673H3.87774V5.45412H9.82667V4.8673ZM9.53326 1.98704V5.16071H10.1201V1.98704H9.53326ZM8.69746 1.23602C9.18104 1.23602 9.53326 1.59341 9.53326 1.98704H10.1201C10.1201 1.22703 9.46117 0.649202 8.69746 0.649202V1.23602ZM7.86167 1.98704C7.86167 1.59341 8.21389 1.23602 8.69746 1.23602V0.649202C7.93376 0.649202 7.27485 1.22703 7.27485 1.98704H7.86167ZM7.37478 2.45015C7.61318 2.45015 7.8457 2.27359 7.86119 2.00387L7.27533 1.97021C7.2799 1.89078 7.34241 1.86332 7.37478 1.86332V2.45015ZM6.88838 2.00387C6.90387 2.27359 7.13639 2.45015 7.37478 2.45015V1.86332C7.40716 1.86332 7.46967 1.89078 7.47424 1.97021L6.88838 2.00387ZM8.69746 0.2913C7.72005 0.2913 6.8879 1.02937 6.8879 1.98704H7.47472C7.47472 1.39574 8.00018 0.878121 8.69746 0.878121V0.2913ZM10.507 1.98704C10.507 1.02937 9.67488 0.2913 8.69746 0.2913V0.878121C9.39475 0.878121 9.92021 1.39574 9.92021 1.98704H10.507ZM10.507 9.9154V1.98704H9.92021V9.9154H10.507ZM10.2626 10.3349C10.4149 10.2502 10.5173 10.0855 10.5065 9.89857L9.92069 9.93223C9.91756 9.87775 9.94791 9.83845 9.97738 9.82206L10.2626 10.3349ZM9.77773 10.3349C9.92782 10.4184 10.1125 10.4184 10.2626 10.3349L9.97738 9.82206C10.0046 9.80692 10.0357 9.80692 10.0629 9.82206L9.77773 10.3349ZM9.53374 9.89858C9.52301 10.0855 9.62539 10.2502 9.77773 10.3349L10.0629 9.82206C10.0924 9.83845 10.1227 9.87775 10.1196 9.93223L9.53374 9.89858ZM9.53326 8.41009V9.9154H10.1201V8.41009H9.53326ZM3.87829 8.7035H9.82667V8.11668H3.87829V8.7035ZM4.1717 9.9154V8.41009H3.58488V9.9154H4.1717ZM3.92723 10.3349C4.07956 10.2502 4.18195 10.0855 4.17122 9.89858L3.58536 9.93223C3.58223 9.87775 3.61258 9.83845 3.64205 9.82206L3.92723 10.3349ZM3.4424 10.3349C3.59249 10.4184 3.77714 10.4184 3.92723 10.3349L3.64205 9.82206C3.66929 9.80692 3.70034 9.80692 3.72758 9.82206L3.4424 10.3349ZM3.19841 9.89857C3.18767 10.0855 3.29006 10.2502 3.4424 10.3349L3.72758 9.82206C3.75705 9.83845 3.7874 9.87775 3.78427 9.93223L3.19841 9.89857ZM3.19793 1.98906V9.9154H3.78475V1.98906H3.19793ZM2.79413 1.32329C3.05778 1.46647 3.2042 1.72176 3.19801 1.98209L3.78467 1.99603C3.79647 1.49932 3.51652 1.04783 3.07419 0.807609L2.79413 1.32329ZM1.93068 1.32329C2.19635 1.17901 2.52847 1.17901 2.79413 1.32329L3.07419 0.807609C2.63387 0.568478 2.09095 0.568478 1.65062 0.807609L1.93068 1.32329ZM1.5268 1.98209C1.52061 1.72176 1.66703 1.46647 1.93068 1.32329L1.65062 0.807609C1.20829 1.04783 0.928339 1.49932 0.940148 1.99603L1.5268 1.98209ZM1.37562 2.33128C1.46938 2.24481 1.52689 2.12224 1.52689 1.98906L0.940065 1.98906C0.940065 1.95085 0.956716 1.91933 0.977769 1.89992L1.37562 2.33128ZM3.87793 5.81404H9.82685V5.22722H3.87793V5.81404ZM4.17134 8.05421V5.52063H3.58452V8.05421H4.17134ZM9.82685 7.7608H3.87793V8.34762H9.82685V7.7608ZM9.53344 5.52063V8.05421H10.1203V5.52063H9.53344Z" fill="#777777"/>
<path d="M0.494017 12.1728C1.3002 12.1543 2.03533 11.7418 2.42551 11.089C2.82219 11.7413 3.56018 12.1528 4.369 12.1728C5.14362 12.1588 5.85546 11.7757 6.25137 11.1597C6.65361 11.7751 7.36839 12.1574 8.14575 12.1728C8.94536 12.1549 9.67541 11.7481 10.0663 11.1026C10.4635 11.7477 11.1966 12.1536 11.9989 12.1728C12.7737 12.1594 13.4858 11.7761 13.8813 11.1597C14.2837 11.775 14.9983 12.1572 15.7757 12.1728C15.8785 12.1678 15.9591 12.0891 15.9591 11.9939C15.9591 11.8986 15.8785 11.82 15.7757 11.8149C15.0274 11.7759 14.3649 11.355 14.057 10.723C14.052 10.715 14.0461 10.7074 14.0396 10.7003C14.0328 10.6891 14.0248 10.6786 14.0155 10.669C14.0048 10.6603 13.9931 10.6527 13.9806 10.6463C13.9719 10.6418 13.9653 10.6347 13.956 10.6307H13.9522C13.9434 10.6283 13.9345 10.6265 13.9255 10.6251C13.8854 10.6148 13.8428 10.6171 13.8043 10.6317H13.8016C13.7945 10.6347 13.7901 10.6403 13.783 10.6438C13.7685 10.6512 13.7549 10.6602 13.7427 10.6705C13.7337 10.6799 13.726 10.6903 13.7197 10.7013C13.7131 10.7087 13.7073 10.7167 13.7023 10.7251C13.3973 11.3527 12.7414 11.7723 11.9989 11.8149C11.2507 11.7759 10.5881 11.355 10.2803 10.723C10.2295 10.6599 10.1495 10.6228 10.0644 10.6228C9.97937 10.6228 9.89933 10.6599 9.84856 10.723C9.54396 11.3507 8.88819 11.7704 8.14575 11.8129C7.39737 11.774 6.73461 11.3531 6.42657 10.721C6.42169 10.7129 6.41583 10.7052 6.4091 10.6983C6.4026 10.6868 6.39453 10.6761 6.38509 10.6665C6.37425 10.6581 6.36255 10.6506 6.35016 10.6443C6.34232 10.6386 6.33412 10.6334 6.3256 10.6286H6.32232C6.31286 10.6261 6.30319 10.6242 6.2934 10.6231C6.25365 10.6129 6.21136 10.6154 6.17333 10.6302C6.16787 10.6302 6.1646 10.6367 6.15968 10.6392C6.1428 10.6469 6.12733 10.6569 6.11384 10.669C6.10545 10.6779 6.0983 10.6878 6.09255 10.6983C6.08509 10.706 6.07868 10.7144 6.07345 10.7235C5.76905 11.3523 5.11242 11.7727 4.369 11.8149C3.62067 11.7759 2.95796 11.355 2.64982 10.723C2.61106 10.644 2.516 10.6027 2.42551 10.6256C2.33279 10.601 2.23481 10.6443 2.19737 10.7266C1.89192 11.3536 1.23616 11.7726 0.494017 11.8149C0.391152 11.82 0.310547 11.8986 0.310547 11.9939C0.310547 12.0891 0.391152 12.1678 0.494017 12.1728Z" fill="#777777" stroke="#777777" stroke-width="0.586822"/>
<path d="M15.7757 13.8927C15.0274 13.8537 14.3649 13.4328 14.057 12.8008C14.0428 12.783 14.029 12.765 14.0155 12.7468C14.005 12.7386 13.9936 12.7314 13.9817 12.7251C13.9736 12.719 13.965 12.7134 13.956 12.7084H13.9522C13.9422 12.7059 13.932 12.7038 13.9217 12.7024C13.9073 12.6984 13.8924 12.6958 13.8775 12.6948H13.8731C13.8495 12.6954 13.8262 12.7 13.8043 12.7084H13.8016C13.7957 12.712 13.7901 12.7159 13.7847 12.72C13.7693 12.7272 13.7551 12.7364 13.7427 12.7473C13.7339 12.7565 13.7264 12.7667 13.7203 12.7776C13.7133 12.785 13.7073 12.7932 13.7023 12.8018C13.3973 13.4294 12.7414 13.8491 11.9989 13.8917C11.2507 13.8527 10.5881 13.4317 10.2803 12.7998C10.2295 12.7367 10.1495 12.6995 10.0644 12.6995C9.97937 12.6995 9.89933 12.7367 9.84856 12.7998C9.54396 13.4275 8.88819 13.8472 8.14575 13.8896C7.39737 13.8507 6.73461 13.4298 6.42657 12.7978C6.42174 12.7899 6.41608 12.7824 6.40965 12.7756C6.40278 12.764 6.39455 12.7531 6.38509 12.7432C6.37474 12.735 6.36338 12.7279 6.35125 12.722C6.34328 12.7158 6.33469 12.7102 6.3256 12.7054H6.32232C6.31142 12.7024 6.30029 12.7002 6.28903 12.6988C6.2505 12.6903 6.21003 12.6931 6.17333 12.7069C6.16893 12.7095 6.16473 12.7124 6.16078 12.7155C6.14342 12.7236 6.12743 12.7339 6.11329 12.7463C6.10545 12.7548 6.09868 12.7641 6.0931 12.774C6.08575 12.7823 6.07918 12.791 6.07345 12.8003C5.76936 13.4294 5.11267 13.8503 4.369 13.8927C3.62067 13.8536 2.95796 13.4328 2.64982 12.8008C2.61068 12.7219 2.51558 12.6807 2.42496 12.7034C2.33242 12.679 2.23478 12.7223 2.19737 12.8043C1.89192 13.4314 1.23616 13.8503 0.494017 13.8927C0.391152 13.8977 0.310547 13.9763 0.310547 14.0716C0.310547 14.1669 0.391152 14.2455 0.494017 14.2506C1.3002 14.232 2.03533 13.8195 2.42551 13.1668C2.82219 13.819 3.56018 14.2306 4.369 14.2506C5.14362 14.2365 5.85546 13.8534 6.25137 13.2374C6.65361 13.8529 7.36839 14.2352 8.14575 14.2506C8.94491 14.233 9.67486 13.8271 10.0663 13.1824C10.4641 13.8267 11.197 14.2318 11.9989 14.2506C12.7737 14.2371 13.4858 13.8538 13.8813 13.2374C14.2837 13.8528 14.9983 14.235 15.7757 14.2506C15.8785 14.2455 15.9591 14.1669 15.9591 14.0716C15.9591 13.9763 15.8785 13.8977 15.7757 13.8927Z" fill="#777777" stroke="#777777" stroke-width="0.586822"/>
</svg>
