<svg width="59" height="59" viewBox="0 0 59 59" fill="none" xmlns="http://www.w3.org/2000/svg">
<path d="M25.1471 2.7435C21.7515 6.09677 18.397 7.52505 13.9248 7.54571C10.3636 7.54571 7.44426 10.4643 7.44426 14.0245C7.42356 18.4955 5.99493 21.8485 2.64077 25.2438C0.156202 27.7691 0.156202 31.9086 2.64077 34.4342C4.31782 36.1316 5.51876 37.8289 6.2848 39.6504C7.07158 41.472 7.42359 43.4177 7.44426 45.6532C7.44426 49.2135 10.3636 52.132 13.9248 52.132C18.397 52.1527 21.7509 53.581 25.1471 56.9342C26.41 58.1762 28.0872 58.7971 29.7435 58.7971C31.3999 58.7971 33.077 58.1762 34.34 56.9342C37.7356 53.581 41.0901 52.1527 45.5623 52.132C49.1235 52.132 52.0428 49.2135 52.0428 45.6532C52.0635 41.1822 53.4922 37.8292 56.8463 34.4339C59.3309 31.9086 59.3309 27.7691 56.8463 25.2435C53.4922 21.8488 52.0635 18.4952 52.0428 14.0242C52.0428 10.4639 49.1235 7.54538 45.5623 7.54538C41.0901 7.52468 37.7362 6.09644 34.34 2.74317C31.814 0.238604 27.6734 0.238935 25.1471 2.7435ZM40.945 22.159C41.7525 22.9663 41.7525 24.291 40.945 25.0983L28.5221 37.5178C28.1287 37.9111 27.5905 38.1181 27.0728 38.1181C26.5345 38.1181 26.0168 37.9111 25.6027 37.5178L18.5426 30.4383C17.7351 29.631 17.7351 28.327 18.5426 27.5198C19.3501 26.7126 20.6545 26.7125 21.4619 27.5198L27.0729 33.1293L38.0256 22.1591C38.8331 21.3518 40.1375 21.3517 40.945 22.159Z" fill="#2FA70A"/>
</svg>
