<svg width="18" height="17" viewBox="0 0 18 17" fill="none" xmlns="http://www.w3.org/2000/svg">
<path d="M8.95297 0.321289C7.30682 0.321289 5.69764 0.80943 4.32891 1.72398C2.96019 2.63853 1.8934 3.93842 1.26344 5.45927C0.633489 6.98011 0.468664 8.65361 0.789812 10.2681C1.11096 11.8827 1.90366 13.3657 3.06766 14.5297C4.23167 15.6937 5.7147 16.4864 7.32922 16.8075C8.94374 17.1287 10.6172 16.9639 12.1381 16.3339C13.6589 15.704 14.9588 14.6372 15.8734 13.2684C16.7879 11.8997 17.2761 10.2905 17.2761 8.64438C17.2763 7.5513 17.0612 6.46888 16.643 5.45896C16.2248 4.44904 15.6118 3.53141 14.8389 2.75849C14.0659 1.98557 13.1483 1.37251 12.1384 0.954323C11.1285 0.53614 10.046 0.321032 8.95297 0.321289ZM12.5717 9.28401H9.59261V12.2651C9.58614 12.4305 9.51587 12.587 9.39653 12.7018C9.27719 12.8165 9.11805 12.8807 8.95248 12.8807C8.78692 12.8807 8.62778 12.8165 8.50844 12.7018C8.3891 12.587 8.31883 12.4305 8.31236 12.2651V9.28401H5.33131C5.16586 9.27754 5.00935 9.20727 4.89459 9.08793C4.77982 8.96859 4.71572 8.80945 4.71572 8.64389C4.71572 8.47832 4.77982 8.31918 4.89459 8.19984C5.00935 8.0805 5.16586 8.01023 5.33131 8.00376H8.31236V5.02271C8.31883 4.85727 8.3891 4.70075 8.50844 4.58599C8.62778 4.47122 8.78692 4.40712 8.95248 4.40712C9.11805 4.40712 9.27719 4.47122 9.39653 4.58599C9.51587 4.70075 9.58614 4.85727 9.59261 5.02271V8.00376H12.5737C12.7391 8.01023 12.8956 8.0805 13.0104 8.19984C13.1251 8.31918 13.1892 8.47832 13.1892 8.64389C13.1892 8.80945 13.1251 8.96859 13.0104 9.08793C12.8956 9.20727 12.7391 9.27754 12.5737 9.28401H12.5717Z" fill="#C49A6C"/>
</svg>
