<svg width="48" height="43" viewBox="0 0 48 43" fill="none" xmlns="http://www.w3.org/2000/svg">
<path d="M44.25 8.5H3.75V3.4375H40.875V0.0625H3.75C2.85489 0.0625 1.99645 0.418079 1.36351 1.05101C0.730579 1.68395 0.375 2.54239 0.375 3.4375V38.875C0.375 39.7701 0.730579 40.6285 1.36351 41.2615C1.99645 41.8944 2.85489 42.25 3.75 42.25H44.25C45.1451 42.25 46.0035 41.8944 46.6365 41.2615C47.2694 40.6285 47.625 39.7701 47.625 38.875V11.875C47.625 10.9799 47.2694 10.1215 46.6365 9.48851C46.0035 8.85558 45.1451 8.5 44.25 8.5ZM3.75 38.875V11.875H44.25V16.9375H30.75C29.8549 16.9375 28.9965 17.2931 28.3635 17.926C27.7306 18.559 27.375 19.4174 27.375 20.3125V30.4375C27.375 31.3326 27.7306 32.191 28.3635 32.824C28.9965 33.4569 29.8549 33.8125 30.75 33.8125H44.25V38.875H3.75ZM44.25 20.3125V30.4375H30.75V20.3125H44.25Z" fill="#AEAEAE"/>
</svg>
